<?xml version="1.0" standalone="no"?>
<!DOCTYPE svg PUBLIC "-//W3C//DTD SVG 20010904//EN"
 "http://www.w3.org/TR/2001/REC-SVG-20010904/DTD/svg10.dtd">
<svg version="1.0" xmlns="http://www.w3.org/2000/svg"
 width="200.000000pt" height="200.000000pt" viewBox="0 0 200.000000 200.000000"
 preserveAspectRatio="xMidYMid meet">

<g transform="translate(0.000000,200.000000) scale(0.100000,-0.100000)"
fill="#000000" stroke="none">
<path d="M1214 1935 c-8 -21 -14 -38 -12 -40 2 -1 23 -13 48 -25 146 -73 269
-197 341 -345 68 -139 82 -209 76 -370 -4 -107 -9 -143 -31 -204 -88 -249
-286 -435 -529 -497 -128 -33 -345 -23 -458 21 -12 5 -20 -2 -28 -26 -6 -18
-11 -36 -11 -40 0 -11 112 -45 178 -54 l52 -7 0 -39 0 -39 -205 0 -205 0 0
-65 0 -65 498 2 497 3 0 60 0 60 -207 3 -208 2 0 39 0 38 91 22 c320 74 548
299 635 626 13 52 18 104 18 200 -1 112 -5 143 -28 220 -70 230 -216 410 -418
515 l-78 41 -16 -36z"/>
<path d="M750 1841 c-260 -70 -449 -277 -497 -546 -33 -186 24 -394 150 -545
80 -95 235 -198 278 -185 13 4 19 2 19 -8 0 -20 80 -38 195 -44 311 -16 591
188 676 492 38 134 25 351 -25 430 -7 11 -16 31 -19 45 -17 70 -197 270 -243
270 -7 0 -14 4 -14 9 0 12 -126 68 -195 86 -80 21 -241 19 -325 -4z m-149
-124 c-13 -13 -26 -3 -16 12 3 6 11 8 17 5 6 -4 6 -10 -1 -17z m619 -91 c0 -3
-4 -8 -10 -11 -5 -3 -10 -1 -10 4 0 6 5 11 10 11 6 0 10 -2 10 -4z m-810 -66
c0 -5 -4 -10 -10 -10 -5 0 -10 5 -10 10 0 6 5 10 10 10 6 0 10 -4 10 -10z
m700 -10 c0 -5 -4 -10 -10 -10 -5 0 -10 5 -10 10 0 6 5 10 10 10 6 0 10 -4 10
-10z m230 -40 c0 -5 -4 -10 -10 -10 -5 0 -10 5 -10 10 0 6 5 10 10 10 6 0 10
-4 10 -10z m-390 -65 c0 -8 -4 -15 -10 -15 -5 0 -10 7 -10 15 0 8 5 15 10 15
6 0 10 -7 10 -15z m510 -45 c0 -5 -4 -10 -10 -10 -5 0 -10 5 -10 10 0 6 5 10
10 10 6 0 10 -4 10 -10z m-855 -40 c3 -5 -1 -10 -10 -10 -9 0 -13 5 -10 10 3
6 8 10 10 10 2 0 7 -4 10 -10z m235 0 c0 -5 -4 -10 -10 -10 -5 0 -10 5 -10 10
0 6 5 10 10 10 6 0 10 -4 10 -10z m560 -65 c0 -8 -4 -15 -9 -15 -13 0 -22 16
-14 24 11 11 23 6 23 -9z m-1080 -5 c0 -5 -5 -10 -11 -10 -5 0 -7 5 -4 10 3 6
8 10 11 10 2 0 4 -4 4 -10z m690 -81 c0 -5 -7 -9 -15 -9 -15 0 -20 12 -9 23 8
8 24 -1 24 -14z m-280 -70 c0 -5 -4 -9 -10 -9 -5 0 -10 7 -10 16 0 8 5 12 10
9 6 -3 10 -10 10 -16z m-80 -39 c0 -5 -4 -10 -10 -10 -5 0 -10 5 -10 10 0 6 5
10 10 10 6 0 10 -4 10 -10z m-320 -30 c0 -5 -5 -10 -11 -10 -5 0 -7 5 -4 10 3
6 8 10 11 10 2 0 4 -4 4 -10z m900 -70 c0 -5 -4 -10 -10 -10 -5 0 -10 5 -10
10 0 6 5 10 10 10 6 0 10 -4 10 -10z m-730 -205 c0 -8 -4 -15 -9 -15 -13 0
-22 16 -14 24 11 11 23 6 23 -9z m750 -80 c0 -8 -4 -15 -10 -15 -5 0 -10 7
-10 15 0 8 5 15 10 15 6 0 10 -7 10 -15z"/>
<path d="M490 55 c0 -30 5 -55 10 -55 6 0 10 10 10 22 l0 21 23 -21 c33 -32
42 -27 17 9 -20 28 -21 31 -6 48 26 28 19 37 -9 11 l-25 -23 0 21 c0 12 -4 22
-10 22 -5 0 -10 -25 -10 -55z"/>
<path d="M590 55 c0 -54 0 -55 30 -55 17 0 30 5 30 10 0 6 -9 10 -20 10 -25 0
-27 30 -2 30 16 1 16 1 0 14 -23 17 -23 26 2 26 11 0 20 5 20 10 0 6 -13 10
-30 10 -30 0 -30 -1 -30 -55z"/>
<path d="M670 55 c0 -30 5 -55 10 -55 6 0 10 9 10 20 0 26 12 26 28 0 7 -11
17 -20 23 -20 7 0 6 8 -3 23 -11 16 -12 26 -5 39 14 22 -7 48 -39 48 -22 0
-24 -4 -24 -55z m48 23 c-6 -18 -28 -21 -28 -4 0 9 7 16 16 16 9 0 14 -5 12
-12z"/>
<path d="M770 55 c0 -59 17 -76 22 -23 l3 33 18 -32 c27 -50 47 -43 47 16 0
59 -17 78 -22 24 l-3 -38 -23 38 c-13 20 -28 37 -33 37 -5 0 -9 -25 -9 -55z"/>
<path d="M887 103 c-4 -3 -7 -28 -7 -55 l0 -48 35 0 c19 0 35 5 35 10 0 6 -11
10 -25 10 -16 0 -25 6 -25 15 0 8 7 15 15 15 8 0 15 5 15 10 0 6 -7 10 -15 10
-8 0 -15 5 -15 10 0 6 12 10 26 10 14 0 23 4 19 10 -7 11 -48 14 -58 3z"/>
<path d="M970 55 c0 -30 5 -55 10 -55 6 0 10 10 10 22 l0 21 23 -21 c27 -25
46 -30 26 -6 -7 9 -12 30 -11 47 3 32 -10 47 -40 47 -15 0 -18 -9 -18 -55z
m40 20 c0 -8 -4 -15 -10 -15 -5 0 -10 7 -10 15 0 8 5 15 10 15 6 0 10 -7 10
-15z"/>
<path d="M1112 58 l-2 -58 40 0 c27 0 43 5 46 15 8 20 41 19 53 -2 5 -10 12
-15 15 -12 8 7 -34 109 -44 109 -5 0 -16 -22 -25 -48 -16 -44 -20 -48 -46 -44
-25 4 -28 8 -32 51 -3 44 -3 44 -5 -11z m118 2 c0 -5 -4 -10 -10 -10 -5 0 -10
5 -10 10 0 6 5 10 10 10 6 0 10 -4 10 -10z"/>
<path d="M1290 55 c0 -52 1 -55 25 -55 27 0 53 34 34 45 -6 4 -8 14 -5 22 8
20 -11 43 -35 43 -16 0 -19 -8 -19 -55z m38 24 c-5 -14 -21 -14 -26 0 -2 6 4
11 13 11 9 0 15 -5 13 -11z m8 -40 c7 -12 -15 -31 -28 -23 -4 3 -8 12 -8 20 0
17 26 19 36 3z"/>
</g>
</svg>
